<?xml version="1.0" encoding="UTF-8"?>
<svg width="43px" height="37px" viewBox="0 0 43 37" version="1.1" xmlns="http://www.w3.org/2000/svg" xmlns:xlink="http://www.w3.org/1999/xlink">
    <title>Placeholder</title>
    <g id="Page-1" stroke="none" stroke-width="1" fill="none" fill-rule="evenodd">
        <path d="M37.6447754,36.051239 C39.409729,36.051239 40.7420502,35.6069794 41.6417389,34.7184601 C42.5414276,33.8299408 42.991272,32.5138245 42.991272,30.7701111 L42.991272,15.0278015 C42.991272,13.283905 42.5414276,11.9674683 41.6417389,11.0784912 C40.7420502,10.1895142 39.409729,9.74502563 37.6447754,9.74502563 L33.915,9.746 L33.1000061,5.14614868 C32.7896423,3.43759155 32.1179199,2.22337341 31.0848389,1.50349426 C30.0517578,0.783615112 28.6644592,0.578857422 26.9229431,0.889221191 L4.71682739,4.79321289 C2.97531128,5.10357666 1.73930359,5.7729187 1.00880432,6.80123901 C0.278305054,7.82955933 0.0676879883,9.20330811 0.376953125,10.9224854 L3.1133728,26.4329834 C3.42263794,28.1534424 4.09115601,29.3706818 5.118927,30.0847015 C6.146698,30.7987213 7.53665161,31.0064087 9.28878784,30.7077637 L9.597,30.653 L9.59777832,30.7701111 C9.59777832,32.5244446 10.044693,33.8432159 10.9385223,34.7264252 C11.8323517,35.6096344 13.167511,36.051239 14.9440002,36.051239 L37.6447754,36.051239 Z M6.97767639,27.4323273 C6.47825623,27.0971527 6.1552124,26.5171204 6.00854492,25.6922302 L3.35205078,10.6247559 C3.20428467,9.79876709 3.30467224,9.13981628 3.6532135,8.64790344 C4.00175476,8.1559906 4.57144165,7.8420105 5.36227417,7.70596313 L27.3179016,3.84838867 C28.0970154,3.71234131 28.7360077,3.81217957 29.2348785,4.14790344 C29.7337494,4.48362732 30.0517578,5.06393433 30.1889038,5.88882446 L30.887,9.746 L14.9440002,9.74502563 C13.167511,9.74502563 11.8323517,10.1895142 10.9385223,11.0784912 C10.044693,11.9674683 9.59777832,13.283905 9.59777832,15.0278015 L9.597,27.613 L8.89382935,27.732666 C8.11581421,27.8676147 7.47709656,27.7675018 6.97767639,27.4323273 Z M12.58,29.042 L12.5802917,15.2428589 C12.5802917,14.40625 12.7936096,13.7781067 13.2202454,13.358429 C13.6468811,12.9387512 14.2609253,12.7289124 15.0623779,12.7289124 L37.5266724,12.7289124 C38.3164062,12.7289124 38.9272461,12.9387512 39.3591919,13.358429 C39.7911377,13.7781067 40.0071106,14.40625 40.0071106,15.2428589 L40.0071106,28.158 L33.8555908,22.3683167 C33.5437622,22.0693054 33.1952209,21.845047 32.809967,21.6955414 C32.4247131,21.5460358 32.0351562,21.471283 31.6412964,21.471283 C31.2390137,21.471283 30.8555908,21.540451 30.4910278,21.6787872 C30.1264648,21.8171234 29.7717896,22.0416565 29.427002,22.3523865 L22.8019714,28.2122192 L20.1625061,25.8331299 C19.8528748,25.546936 19.5303802,25.3348999 19.1950226,25.1970215 C18.8596649,25.0591431 18.5184937,24.9902039 18.1715088,24.9902039 C17.8477783,24.9902039 17.5315094,25.0591431 17.222702,25.1970215 C16.9138947,25.3348999 16.5993652,25.5410767 16.2791138,25.8155518 L12.58,29.042 Z M21.6558228,22.7130127 C22.6240845,22.7130127 23.4495697,22.3663483 24.1322784,21.6730194 C24.8149872,20.9796906 25.1563416,20.1489868 25.1563416,19.1809082 C25.1563416,18.2234497 24.8149872,17.4007111 24.1322784,16.7126923 C23.4495697,16.0246735 22.6240845,15.6806641 21.6558228,15.6806641 C20.6877441,15.6806641 19.8623505,16.0246735 19.1796417,16.7126923 C18.496933,17.4007111 18.1555786,18.2234497 18.1555786,19.1809082 C18.1555786,20.1489868 18.496933,20.9796906 19.1796417,21.6730194 C19.8623505,22.3663483 20.6877441,22.7130127 21.6558228,22.7130127 Z" id="Placeholder" fill="#FFFFFF" fill-rule="nonzero"></path>
    </g>
</svg>